<?xml version="1.0" encoding="UTF-8"?>
<svg id="Layer_1" data-name="Layer 1" xmlns="http://www.w3.org/2000/svg" viewBox="0 0 1080 77.14">
  <defs>
    <style>
      .cls-1 {
        fill: #1e2019;
      }

      .cls-1, .cls-2, .cls-3, .cls-4, .cls-5, .cls-6, .cls-7 {
        stroke-width: 0px;
      }

      .cls-8 {
        isolation: isolate;
      }

      .cls-2 {
        fill: #69a2b0;
      }

      .cls-3 {
        fill: #fff;
      }

      .cls-4 {
        fill: #69a1af;
      }

      .cls-5 {
        fill: #caff8a;
      }

      .cls-6 {
        fill: #f08f21;
      }

      .cls-7 {
        fill: #36c;
      }
    </style>
  </defs>
  <path id="Rectangle_11" data-name="Rectangle 11" class="cls-4" d="M40.68,1.4h102.39c20.92,0,37.87,16.96,37.87,37.87h0c0,20.92-16.96,37.87-37.87,37.87H40.68c-20.92,0-37.87-16.96-37.87-37.87h0C2.81,18.36,19.76,1.4,40.68,1.4Z"/>
  <g id="Design" class="cls-8">
    <g class="cls-8">
      <path class="cls-3" d="M35.59,53.38c-1.41.35-2.87.47-4.2.47-1.1-2.59-1.3-5.85-1.3-9.54v-8.17c1.34-.82,2.71-1.53,4.2-2.04-1.96-.39-4.36-.71-7.23-1.02,1.65-3.34,4.32-6.09,7.34-7.82,10.68,1.45,17.08,5.5,17.08,14.3,0,5.77-2.12,12.02-5.69,16.46-3.81-.39-7.27-1.26-10.21-2.63ZM42.23,50.27c.59-2.59.82-5.15.82-6.95,0-4.16-1.02-6.4-3.85-7.78v14.14l3.02.59Z"/>
      <path class="cls-3" d="M63.32,34.21v4.36l7.11-.31c0,2.44-.43,4.75-1.45,6.76l-5.66-1.45v3.85c2.28.31,4.71.51,7.74.67.08.63.08,1.22.08,1.81,0,.9-.04,1.81-.2,2.71-1.3,1.41-2.79,2.59-4.36,3.46-4.01-.79-8.6-2-12.76-3.97.2-1.49.47-2.91.9-4.32-.43-2.04-.51-4.44-.51-6.99v-4.63c1.65-1.02,3.38-1.85,5.3-2.4-2.47-.27-4.99-.51-7.54-.67,1.65-3.34,4.32-6.09,7.34-7.82,3.97.39,9.07,1.06,11.98,2.04.04.51.08,1.02.08,1.57,0,2.12-.31,4.44-.98,6.48-2.4-.43-4.75-.82-7.07-1.14Z"/>
      <path class="cls-3" d="M73.25,53.3c0-3.5.82-7.03,2.32-9.94,2.83,2.79,5.58,4.87,8.84,6.56.04-.71.08-1.41.08-2.12,0-1.1-.08-2.24-.24-3.34-6.95-.67-10.92-3.5-10.92-9.5,0-1.57.35-3.42.9-4.91,2.24-1.1,4.87-1.81,7.62-2.08,1.14-1.1,2.4-2.08,3.61-2.71,2.91.39,5.46,1.26,7.66,2.4-.12,3.06-.82,6.21-2.32,8.96-2.63-1.65-5.26-2.75-8.25-3.53-.12,1.37-.2,2.67-.2,3.93,0,.63,0,1.26.04,1.85,2.47-.75,5.07-1.14,8.05-1.14,1.77,1.73,2.91,4.4,2.91,7.11,0,4.08-1.81,7.7-5.11,11.23-5.73,0-10.88-.9-15-2.75Z"/>
      <path class="cls-3" d="M96.78,51.96c-.27-.86-.35-1.85-.35-2.79v-17.79c-.51-.63-.94-1.45-1.18-2.32,1.85-1.96,4.32-3.42,7.38-3.85.98.67,1.92,1.81,2.32,3.02.27.86.35,1.85.35,2.79v17.79c.51.63.94,1.45,1.18,2.32-2.24,1.96-4.71,3.42-7.38,3.85-.98-.67-1.92-1.81-2.32-3.02Z"/>
      <path class="cls-3" d="M129.1,39.79l-1.1,14.81c-1.65.9-3.93,1.41-6.09,1.41l-.2-2.12c-8.8-.04-13.86-4.36-13.86-12.65,0-3.02.47-6.64,1.06-9.5,1.73-.82,3.77-1.45,5.85-1.81,1.57-1.96,3.53-3.69,5.38-4.67,3.22.39,6.13,1.26,8.05,2.4,0,2.83-.75,5.3-1.85,7.82-2.63-.98-5.38-1.57-8.17-1.92-.39,1.96-.55,4.24-.55,5.89,0,4.52.67,8.21,3.65,9.23l-.86-10.29c2.87.08,6.17.51,8.68,1.41Z"/>
      <path class="cls-3" d="M138.21,41.08v5.3l1.1,5.46c-1.38,1.14-3.93,1.88-5.85,2-1.02-2.28-1.41-4.63-1.41-7.34v-11.15c.71-.59,1.81-1.3,3.18-1.96-1.81-.16-3.69-.27-5.62-.31,1.33-2.95,4.6-6.4,7.34-7.82,1.85.16,3.46.51,4.99,1.06l5.5,17.95v-9.94l-1.92-5.54c1.92-1.26,4.05-1.77,6.79-2,1.02,2.32,1.34,5.22,1.34,8.44v16.65c-2.12,1.96-5.66,3.34-10.33,3.89l-5.11-14.69Z"/>
    </g>
  </g>
  <path id="Rectangle_12" data-name="Rectangle 12" class="cls-2" d="M37.87,1.4h116.42c20.92,0,37.87,16.96,37.87,37.87h0c0,20.92-16.96,37.87-37.87,37.87H37.87C16.96,77.14,0,60.19,0,39.27h0C0,18.36,16.96,1.4,37.87,1.4Z"/>
  <g id="Design-2" class="cls-8">
    <g class="cls-8">
      <path class="cls-1" d="M35.59,53.38c-1.41.35-2.87.47-4.2.47-1.1-2.59-1.3-5.85-1.3-9.54v-8.17c1.34-.82,2.71-1.53,4.2-2.04-1.96-.39-4.36-.71-7.23-1.02,1.65-3.34,4.32-6.09,7.34-7.82,10.68,1.45,17.08,5.5,17.08,14.3,0,5.77-2.12,12.02-5.69,16.46-3.81-.39-7.27-1.26-10.21-2.63ZM42.23,50.27c.59-2.59.82-5.15.82-6.95,0-4.16-1.02-6.4-3.85-7.78v14.14l3.02.59Z"/>
      <path class="cls-1" d="M63.32,34.21v4.36l7.11-.31c0,2.44-.43,4.75-1.45,6.76l-5.66-1.45v3.85c2.28.31,4.71.51,7.74.67.08.63.08,1.22.08,1.81,0,.9-.04,1.81-.2,2.71-1.3,1.41-2.79,2.59-4.36,3.46-4.01-.79-8.6-2-12.76-3.97.2-1.49.47-2.91.9-4.32-.43-2.04-.51-4.44-.51-6.99v-4.63c1.65-1.02,3.38-1.85,5.3-2.4-2.47-.27-4.99-.51-7.54-.67,1.65-3.34,4.32-6.09,7.34-7.82,3.97.39,9.07,1.06,11.98,2.04.04.51.08,1.02.08,1.57,0,2.12-.31,4.44-.98,6.48-2.4-.43-4.75-.82-7.07-1.14Z"/>
      <path class="cls-1" d="M73.25,53.3c0-3.5.82-7.03,2.32-9.94,2.83,2.79,5.58,4.87,8.84,6.56.04-.71.08-1.41.08-2.12,0-1.1-.08-2.24-.24-3.34-6.95-.67-10.92-3.5-10.92-9.5,0-1.57.35-3.42.9-4.91,2.24-1.1,4.87-1.81,7.62-2.08,1.14-1.1,2.4-2.08,3.61-2.71,2.91.39,5.46,1.26,7.66,2.4-.12,3.06-.82,6.21-2.32,8.96-2.63-1.65-5.26-2.75-8.25-3.53-.12,1.37-.2,2.67-.2,3.93,0,.63,0,1.26.04,1.85,2.47-.75,5.07-1.14,8.05-1.14,1.77,1.73,2.91,4.4,2.91,7.11,0,4.08-1.81,7.7-5.11,11.23-5.73,0-10.88-.9-15-2.75Z"/>
      <path class="cls-1" d="M96.78,51.96c-.27-.86-.35-1.85-.35-2.79v-17.79c-.51-.63-.94-1.45-1.18-2.32,1.85-1.96,4.32-3.42,7.38-3.85.98.67,1.92,1.81,2.32,3.02.27.86.35,1.85.35,2.79v17.79c.51.63.94,1.45,1.18,2.32-2.24,1.96-4.71,3.42-7.38,3.85-.98-.67-1.92-1.81-2.32-3.02Z"/>
      <path class="cls-1" d="M129.1,39.79l-1.1,14.81c-1.65.9-3.93,1.41-6.09,1.41l-.2-2.12c-8.8-.04-13.86-4.36-13.86-12.65,0-3.02.47-6.64,1.06-9.5,1.73-.82,3.77-1.45,5.85-1.81,1.57-1.96,3.53-3.69,5.38-4.67,3.22.39,6.13,1.26,8.05,2.4,0,2.83-.75,5.3-1.85,7.82-2.63-.98-5.38-1.57-8.17-1.92-.39,1.96-.55,4.24-.55,5.89,0,4.52.67,8.21,3.65,9.23l-.86-10.29c2.87.08,6.17.51,8.68,1.41Z"/>
      <path class="cls-1" d="M138.21,41.08v5.3l1.1,5.46c-1.38,1.14-3.93,1.88-5.85,2-1.02-2.28-1.41-4.63-1.41-7.34v-11.15c.71-.59,1.81-1.3,3.18-1.96-1.81-.16-3.69-.27-5.62-.31,1.33-2.95,4.6-6.4,7.34-7.82,1.85.16,3.46.51,4.99,1.06l5.5,17.95v-9.94l-1.92-5.54c1.92-1.26,4.05-1.77,6.79-2,1.02,2.32,1.34,5.22,1.34,8.44v16.65c-2.12,1.96-5.66,3.34-10.33,3.89l-5.11-14.69Z"/>
    </g>
  </g>
  <path id="Rectangle_13" data-name="Rectangle 13" class="cls-7" d="M295.95,0h225.82c20.92,0,37.87,16.96,37.87,37.87h0c0,20.92-16.96,37.87-37.87,37.87h-225.82c-20.92,0-37.87-16.96-37.87-37.87h0c0-20.92,16.96-37.87,37.87-37.87Z"/>
  <g id="illustration" class="cls-8">
    <g class="cls-8">
      <path class="cls-1" d="M287.05,51.96c-.27-.86-.35-1.85-.35-2.79v-17.79c-.51-.63-.94-1.45-1.18-2.32,1.85-1.96,4.32-3.42,7.38-3.85.98.67,1.92,1.81,2.32,3.02.27.86.35,1.85.35,2.79v17.79c.51.63.94,1.45,1.18,2.32-2.24,1.96-4.71,3.42-7.38,3.85-.98-.67-1.92-1.81-2.32-3.02Z"/>
      <path class="cls-1" d="M298.59,31.15c1.1-2.36,3.42-4.83,5.58-5.93.98.2,2.04.59,2.91,1.14,1.14.71,2.04,1.92,2.04,4.08v14.3c-1.14.79-2.51,1.3-3.97,1.61,2.4.63,4.79.98,8.05,1.3.08.83.12,1.65.12,2.47s-.04,1.65-.12,2.47c-1.1,1.38-2.32,2.55-3.65,3.42-3.81-.79-7.34-2-10.76-3.97.2-1.92.51-3.81,1.06-5.66v-14.3c-.47-.24-.86-.51-1.26-.94Z"/>
      <path class="cls-1" d="M314.89,31.15c1.1-2.36,3.42-4.83,5.58-5.93.98.2,2.04.59,2.91,1.14,1.14.71,2.04,1.92,2.04,4.08v14.3c-1.14.79-2.51,1.3-3.97,1.61,2.4.63,4.79.98,8.05,1.3.08.83.12,1.65.12,2.47s-.04,1.65-.12,2.47c-1.1,1.38-2.32,2.55-3.65,3.42-3.81-.79-7.34-2-10.76-3.97.2-1.92.51-3.81,1.06-5.66v-14.3c-.47-.24-.86-.51-1.26-.94Z"/>
      <path class="cls-1" d="M330.91,49.21c.2-.67.51-1.26.86-1.77v-13.2c-.47-.24-.86-.51-1.26-.94,1.1-2.36,3.42-4.83,5.58-5.93.98.2,2.04.59,2.91,1.14,1.14.71,2.04,1.92,2.04,4.08v13.2c-.51.51-1.1,1.02-1.73,1.49,1.53.67,2.98,1.06,4.63,1.37v-21.41c2-1.53,4.44-2,7.19-2,1.1,2.59,1.3,5.85,1.3,9.54v13.55c-1.96,3.42-4.83,6.09-8.21,7.7-4.99-1.1-9.39-3.42-13.31-6.83Z"/>
      <path class="cls-1" d="M355.18,53.3c0-3.5.82-7.03,2.32-9.94,2.83,2.79,5.58,4.87,8.84,6.56.04-.71.08-1.41.08-2.12,0-1.1-.08-2.24-.24-3.34-6.95-.67-10.92-3.5-10.92-9.5,0-1.57.35-3.42.9-4.91,2.24-1.1,4.87-1.81,7.62-2.08,1.14-1.1,2.4-2.08,3.61-2.71,2.91.39,5.46,1.26,7.66,2.4-.12,3.06-.82,6.21-2.32,8.96-2.63-1.65-5.26-2.75-8.25-3.53-.12,1.37-.2,2.67-.2,3.93,0,.63,0,1.26.04,1.85,2.47-.75,5.07-1.14,8.05-1.14,1.77,1.73,2.91,4.4,2.91,7.11,0,4.08-1.81,7.7-5.11,11.23-5.73,0-10.88-.9-15-2.75Z"/>
      <path class="cls-1" d="M383.34,54.71c-1.14-.71-2.04-1.92-2.04-4.08v-15.55c.79-.55,1.69-.94,2.63-1.26-2.79-.31-5.54-.55-8.25-.75,1.18-3.34,2.91-6.09,4.99-7.82,3.22.12,6.91.82,10.45,1.77.79-.75,1.65-1.37,2.47-1.81,1.49.75,2.71,2,2.71,3.85,0,2.2-1.02,4.36-2.63,6.25-1.3-.24-2.55-.47-3.85-.67.63,2.28.75,4.99.75,7.97v6.36c.47.24,1.26.71,1.65,1.14-.86,2.47-2.63,4.83-4.79,5.93-1.53-.2-3.22-.79-4.08-1.33Z"/>
      <path class="cls-1" d="M399.52,44.3v-8.17c1.49-.94,3.1-1.73,4.87-2.28-2.12-.31-4.71-.55-7.89-.79,1.65-3.34,4.32-6.09,7.34-7.82,10.21,1.1,17.08,5.03,17.08,11.63,0,2.83-1.57,5.69-4.16,8.01,1.02.16,1.96.35,2.79.63.82,2.43,1.41,5.03,1.41,7.7-2,1.45-5.18,2.55-8.52,2.79,0-3.26-.31-6.25-.94-9.27l-2.87-.31v5.42c-2.24,1.53-5.22,2-7.82,2-1.1-2.59-1.3-5.85-1.3-9.54ZM411.89,42.89c.39-1.18.59-2.32.59-3.42,0-2.16-.86-3.61-3.85-4.63v7.5l3.26.55Z"/>
      <path class="cls-1" d="M435.26,46.98c-1.41-.16-2.75-.24-4.05-.31l-.31,5.46c-1.85,1.41-3.89,1.65-6.32,1.65-.47-1.77-.67-3.89-.67-6.17v-1.1h-2.08c.35-2.16,1.26-4.16,2.4-5.7l.31-5.73c.75-.51,1.49-.98,2.32-1.37-1.81-.27-3.53-.47-5.11-.63,1.65-3.34,4.32-6.09,7.34-7.82,3.3.75,6.91,1.73,9.94,3.18,3.38,1.65,4.63,3.73,4.79,8.6l.39,12.18c.43.24.82.51,1.18.9-1.14,2.47-3.02,4.63-5.18,5.93-.98-.2-2.04-.59-2.91-1.14-1.14-.71-2.04-1.81-2.04-4.05v-3.89ZM435.26,42.11v-6.76c-1.06-.31-2.2-.59-3.38-.82l-.39,6.72c1.3.24,2.55.51,3.77.86Z"/>
      <path class="cls-1" d="M452.38,54.71c-1.14-.71-2.04-1.92-2.04-4.08v-15.55c.79-.55,1.69-.94,2.63-1.26-2.79-.31-5.54-.55-8.25-.75,1.18-3.34,2.91-6.09,4.99-7.82,3.22.12,6.91.82,10.45,1.77.79-.75,1.65-1.37,2.47-1.81,1.49.75,2.71,2,2.71,3.85,0,2.2-1.02,4.36-2.63,6.25-1.3-.24-2.55-.47-3.85-.67.63,2.28.75,4.99.75,7.97v6.36c.47.24,1.26.71,1.65,1.14-.86,2.47-2.63,4.83-4.79,5.93-1.53-.2-3.22-.79-4.08-1.33Z"/>
      <path class="cls-1" d="M468.68,51.96c-.27-.86-.35-1.85-.35-2.79v-17.79c-.51-.63-.94-1.45-1.18-2.32,1.85-1.96,4.32-3.42,7.38-3.85.98.67,1.92,1.81,2.32,3.02.27.86.35,1.85.35,2.79v17.79c.51.63.94,1.45,1.18,2.32-2.24,1.96-4.71,3.42-7.38,3.85-.98-.67-1.92-1.81-2.32-3.02Z"/>
      <path class="cls-1" d="M483.48,53.26c-2.24-4.36-3.34-7.78-3.34-12.57,0-2.95.47-6.6,1.22-8.96.63-.35,1.41-.67,2.24-.94,1.49-2.55,3.57-4.44,5.93-5.54,7.74,1.33,11.9,6.44,11.9,13.47,0,3.93-1.18,7.82-3.42,11,.51.04,1.02.04,1.53.04-1.26,2.47-3.34,4.75-5.85,6.25-3.42-.55-7.19-1.57-10.21-2.75ZM489.65,48.51l1.89.47c.82-2.24,1.1-6.36,1.1-8.92,0-3.73-.75-6.99-2.79-8.64-.63,3.42-.9,7.07-.9,9.7s.2,4.83.71,7.38Z"/>
      <path class="cls-1" d="M510.62,41.08v5.3l1.1,5.46c-1.38,1.14-3.93,1.88-5.85,2-1.02-2.28-1.41-4.63-1.41-7.34v-11.15c.71-.59,1.81-1.3,3.18-1.96-1.81-.16-3.69-.27-5.62-.31,1.33-2.95,4.6-6.4,7.34-7.82,1.85.16,3.46.51,4.99,1.06l5.5,17.95v-9.94l-1.92-5.54c1.92-1.26,4.05-1.77,6.79-2,1.02,2.32,1.34,5.22,1.34,8.44v16.65c-2.12,1.96-5.66,3.34-10.33,3.89l-5.11-14.69Z"/>
    </g>
  </g>
  <path id="Rectangle_14" data-name="Rectangle 14" class="cls-5" d="M673.25,1.4h150.08c20.92,0,37.87,16.96,37.87,37.87h0c0,20.92-16.96,37.87-37.87,37.87h-150.08c-20.92,0-37.87-16.96-37.87-37.87h0c0-20.92,16.96-37.87,37.87-37.87Z"/>
  <g id="fine_art" data-name="fine art" class="cls-8">
    <g class="cls-8">
      <path class="cls-1" d="M672.29,47.87v-10.33c1.61-.98,3.3-1.81,5.18-2.36-2.36-.31-4.75-.55-7.42-.71,1.65-3.34,4.32-6.09,7.34-7.82,3.97.39,7.89,1.06,10.8,2.04.04.51.08,1.02.08,1.57,0,2.12-.31,4.44-.98,6.48-2.12-.39-4.05-.71-5.89-1.02v5.73l5.93-.24c0,2.44-.43,4.75-1.45,6.76l-4.48-1.14v8.56c-2.24,1.53-5.22,2-7.82,2-1.1-2.59-1.3-5.85-1.3-9.54Z"/>
      <path class="cls-1" d="M691.61,53.37c-.28-.86-.35-1.85-.35-2.79v-17.79c-.51-.63-.94-1.45-1.18-2.32,1.85-1.96,4.32-3.42,7.38-3.85.98.67,1.92,1.81,2.32,3.02.28.86.35,1.85.35,2.79v17.79c.51.63.94,1.45,1.18,2.32-2.24,1.96-4.71,3.42-7.38,3.85-.98-.67-1.92-1.81-2.32-3.02Z"/>
      <path class="cls-1" d="M710.3,42.49v5.3l1.1,5.46c-1.38,1.14-3.93,1.88-5.85,2-1.02-2.28-1.41-4.63-1.41-7.34v-11.15c.71-.59,1.81-1.3,3.18-1.96-1.81-.16-3.69-.27-5.62-.31,1.33-2.95,4.59-6.4,7.34-7.82,1.85.16,3.46.51,4.99,1.06l5.5,17.95v-9.94l-1.92-5.54c1.92-1.26,4.05-1.77,6.79-2,1.02,2.32,1.34,5.22,1.34,8.44v16.65c-2.12,1.96-5.66,3.34-10.33,3.89l-5.11-14.69Z"/>
      <path class="cls-1" d="M738.54,35.61v4.36l7.11-.31c0,2.44-.43,4.75-1.45,6.76l-5.66-1.45v3.85c2.28.31,4.71.51,7.74.67.08.63.08,1.22.08,1.81,0,.9-.04,1.81-.2,2.71-1.3,1.41-2.79,2.59-4.36,3.46-4.01-.79-8.6-2-12.76-3.97.2-1.49.47-2.91.9-4.32-.43-2.04-.51-4.44-.51-6.99v-4.63c1.65-1.02,3.38-1.85,5.3-2.4-2.47-.27-4.99-.51-7.54-.67,1.65-3.34,4.32-6.09,7.34-7.82,3.97.39,9.07,1.06,11.98,2.04.04.51.08,1.02.08,1.57,0,2.12-.31,4.44-.98,6.48-2.4-.43-4.75-.82-7.07-1.14Z"/>
      <path class="cls-1" d="M767.37,48.38c-1.41-.16-2.75-.24-4.04-.31l-.31,5.46c-1.85,1.41-3.89,1.65-6.32,1.65-.47-1.77-.67-3.89-.67-6.17v-1.1h-2.08c.35-2.16,1.26-4.16,2.4-5.7l.31-5.73c.75-.51,1.49-.98,2.32-1.37-1.81-.27-3.53-.47-5.11-.63,1.65-3.34,4.32-6.09,7.34-7.82,3.3.75,6.91,1.73,9.94,3.18,3.38,1.65,4.63,3.73,4.79,8.6l.39,12.18c.43.24.83.51,1.18.9-1.14,2.47-3.02,4.63-5.18,5.93-.98-.2-2.04-.59-2.91-1.14-1.14-.71-2.04-1.81-2.04-4.05v-3.89ZM767.37,43.51v-6.76c-1.06-.31-2.2-.59-3.38-.82l-.39,6.72c1.3.24,2.55.51,3.77.86Z"/>
      <path class="cls-1" d="M780.13,45.71v-8.17c1.49-.94,3.1-1.73,4.87-2.28-2.12-.31-4.71-.55-7.89-.79,1.65-3.34,4.32-6.09,7.34-7.82,10.21,1.1,17.09,5.03,17.09,11.63,0,2.83-1.57,5.69-4.16,8.01,1.02.16,1.96.35,2.79.63.83,2.43,1.41,5.03,1.41,7.7-2,1.45-5.18,2.55-8.52,2.79,0-3.26-.31-6.25-.94-9.27l-2.87-.31v5.42c-2.24,1.53-5.22,2-7.82,2-1.1-2.59-1.3-5.85-1.3-9.54ZM792.5,44.29c.39-1.18.59-2.32.59-3.42,0-2.16-.86-3.61-3.85-4.63v7.5l3.26.55Z"/>
      <path class="cls-1" d="M809.15,56.12c-1.14-.71-2.04-1.92-2.04-4.08v-15.55c.79-.55,1.69-.94,2.63-1.26-2.79-.31-5.54-.55-8.25-.75,1.18-3.34,2.91-6.09,4.99-7.82,3.22.12,6.91.82,10.45,1.77.79-.75,1.65-1.37,2.47-1.81,1.49.75,2.71,2,2.71,3.85,0,2.2-1.02,4.36-2.63,6.25-1.3-.24-2.55-.47-3.85-.67.63,2.28.75,4.99.75,7.97v6.36c.47.24,1.26.71,1.65,1.14-.86,2.47-2.63,4.83-4.79,5.93-1.53-.2-3.22-.79-4.08-1.33Z"/>
    </g>
  </g>
  <path id="Rectangle_15" data-name="Rectangle 15" class="cls-6" d="M966.39,1.4h75.74c20.92,0,37.87,16.96,37.87,37.87h0c0,20.92-16.96,37.87-37.87,37.87h-75.74c-20.92,0-37.87-16.96-37.87-37.87h0c0-20.92,16.96-37.87,37.87-37.87Z"/>
  <g id="film" class="cls-8">
    <g class="cls-8">
      <path class="cls-1" d="M965.43,47.87v-10.33c1.61-.98,3.3-1.81,5.18-2.36-2.36-.31-4.75-.55-7.42-.71,1.65-3.34,4.32-6.09,7.34-7.82,3.97.39,7.89,1.06,10.8,2.04.04.51.08,1.02.08,1.57,0,2.12-.31,4.44-.98,6.48-2.12-.39-4.05-.71-5.89-1.02v5.73l5.93-.24c0,2.44-.43,4.75-1.45,6.76l-4.48-1.14v8.56c-2.24,1.53-5.22,2-7.82,2-1.1-2.59-1.3-5.85-1.3-9.54Z"/>
      <path class="cls-1" d="M984.75,53.37c-.28-.86-.35-1.85-.35-2.79v-17.79c-.51-.63-.94-1.45-1.18-2.32,1.85-1.96,4.32-3.42,7.38-3.85.98.67,1.92,1.81,2.32,3.02.28.86.35,1.85.35,2.79v17.79c.51.63.94,1.45,1.18,2.32-2.24,1.96-4.71,3.42-7.38,3.85-.98-.67-1.92-1.81-2.32-3.02Z"/>
      <path class="cls-1" d="M996.3,32.55c1.1-2.36,3.42-4.83,5.58-5.93.98.2,2.04.59,2.91,1.14,1.14.71,2.04,1.92,2.04,4.08v14.3c-1.14.79-2.51,1.3-3.97,1.61,2.4.63,4.79.98,8.05,1.3.08.82.12,1.65.12,2.47s-.04,1.65-.12,2.47c-1.1,1.38-2.32,2.55-3.65,3.42-3.81-.79-7.34-2-10.76-3.97.2-1.92.51-3.81,1.06-5.66v-14.3c-.47-.24-.86-.51-1.26-.94Z"/>
      <path class="cls-1" d="M1020.45,37.22v16.02c-1.41,1.14-3.97,1.88-5.89,2-1.18-2.59-1.41-5.85-1.41-9.54v-8.96c1.02-.79,2.08-1.49,3.26-2-1.81-.12-3.73-.24-5.7-.27,1.65-3.34,4.28-6.17,7.34-7.82,2.75,0,5.81.9,7.89,2.12l2.75,11.47,2.55-9.27c2.4-1.3,5.3-2,7.97-2,1.1,2.59,1.3,5.85,1.3,9.54v12.02c.47.24.86.51,1.26.94-1.1,2.36-3.3,4.75-5.58,5.93-.63-.27-1.34-.67-1.96-1.18-1.22-.98-1.81-2.28-1.81-4.44v-14.02l-3.38,12.37c-1.22,1.18-2.83,1.88-4.83,2l-3.77-14.92Z"/>
    </g>
  </g>
  <g id="_" data-name=" " class="cls-8">
    <g class="cls-8">
      <path class="cls-1" d="M223.85,44.06l.16-4.4-5.15.43c-.04-.51-.08-1.02-.08-1.49,0-1.45.2-2.83.59-4.32l4.44.16-.43-5.15c.51-.04,1.02-.08,1.49-.08,1.45,0,2.83.2,4.32.59l-.16,4.44,5.15-.43c.04.51.08,1.02.08,1.49,0,1.45-.2,2.83-.59,4.32l-4.44-.16.43,5.11c-.55.08-1.1.08-1.65.08-1.37,0-2.71-.2-4.16-.59Z"/>
    </g>
  </g>
  <g id="_2" data-name=" 2" class="cls-8">
    <g class="cls-8">
      <path class="cls-1" d="M601.14,48.27l.16-4.4-5.15.43c-.04-.51-.08-1.02-.08-1.49,0-1.45.2-2.83.59-4.32l4.44.16-.43-5.14c.51-.04,1.02-.08,1.49-.08,1.45,0,2.83.2,4.32.59l-.16,4.44,5.14-.43c.04.51.08,1.02.08,1.49,0,1.45-.2,2.83-.59,4.32l-4.44-.16.43,5.11c-.55.08-1.1.08-1.65.08-1.38,0-2.71-.2-4.16-.59Z"/>
    </g>
  </g>
  <g id="_3" data-name=" 3" class="cls-8">
    <g class="cls-8">
      <path class="cls-1" d="M894.29,44.06l.16-4.4-5.15.43c-.04-.51-.08-1.02-.08-1.49,0-1.45.2-2.83.59-4.32l4.44.16-.43-5.15c.51-.04,1.02-.08,1.49-.08,1.45,0,2.83.2,4.32.59l-.16,4.44,5.14-.43c.04.51.08,1.02.08,1.49,0,1.45-.2,2.83-.59,4.32l-4.44-.16.43,5.11c-.55.08-1.1.08-1.65.08-1.38,0-2.71-.2-4.16-.59Z"/>
    </g>
  </g>
</svg>