<?xml version="1.0" encoding="UTF-8"?>
<svg id="Layer_1" data-name="Layer 1" xmlns="http://www.w3.org/2000/svg" viewBox="0 0 95.95 33.12">
  <defs>
    <style>
      .cls-1 {
        isolation: isolate;
      }

      .cls-2 {
        fill: #fff;
        stroke-width: 0px;
      }
    </style>
  </defs>
  <g id="submit" class="cls-1">
    <g class="cls-1">
      <path class="cls-2" d="M.56,23.8c0-2.49.59-5.01,1.65-7.08,2.02,1.99,3.98,3.47,6.3,4.68.03-.5.06-1.01.06-1.51,0-.78-.06-1.6-.17-2.38-4.96-.48-7.78-2.49-7.78-6.78,0-1.12.25-2.44.64-3.5,1.6-.78,3.47-1.29,5.43-1.48.81-.78,1.71-1.48,2.58-1.93,2.07.28,3.89.9,5.46,1.71-.08,2.18-.59,4.42-1.65,6.38-1.88-1.18-3.75-1.96-5.88-2.52-.08.98-.14,1.9-.14,2.8,0,.45,0,.9.03,1.32,1.76-.53,3.61-.81,5.74-.81,1.26,1.23,2.07,3.14,2.07,5.07,0,2.91-1.29,5.49-3.64,8.01-4.09,0-7.76-.64-10.7-1.96Z"/>
      <path class="cls-2" d="M16.21,20.89c.14-.48.36-.9.62-1.26v-9.41c-.34-.17-.62-.36-.9-.67.78-1.68,2.44-3.44,3.98-4.23.7.14,1.46.42,2.07.81.81.5,1.46,1.37,1.46,2.91v9.41c-.36.36-.78.73-1.23,1.06,1.09.48,2.13.76,3.3.98V5.24c1.43-1.09,3.16-1.43,5.12-1.43.78,1.85.92,4.17.92,6.8v9.66c-1.4,2.44-3.44,4.34-5.85,5.49-3.56-.78-6.69-2.44-9.49-4.87Z"/>
      <path class="cls-2" d="M34.47,17.42v-5.85c1.09-.67,2.21-1.23,3.44-1.62-1.54-.25-3.42-.45-5.66-.56,1.18-2.38,3.08-4.34,5.24-5.57,6.86,1.01,10.81,3.25,11.54,6.72-.7,1.23-1.68,2.44-2.69,3.44,2.18.92,3.67,2.41,3.67,4.31,0,2.38-1.23,5.07-4.62,7.48-1.71,0-4.17-.95-6.13-2.13-1.23.45-2.6.59-3.86.59-.78-1.85-.92-4.17-.92-6.8ZM43.62,14.14c-.17-1.6-1.04-2.66-2.69-3.36v5.07l2.69-1.71ZM43.17,21.98c.76-1.18.95-1.93.95-2.49,0-1.15-1.23-2.02-3.19-2.27v3.72c.7.42,1.46.76,2.24,1.04Z"/>
      <path class="cls-2" d="M57.09,11.34v11.42c-1.01.81-2.83,1.34-4.2,1.43-.84-1.85-1.01-4.17-1.01-6.8v-6.38c.73-.56,1.48-1.06,2.32-1.43-1.29-.08-2.66-.17-4.06-.2,1.18-2.38,3.05-4.4,5.24-5.57,1.96,0,4.14.64,5.63,1.51l1.96,8.18,1.82-6.61c1.71-.92,3.78-1.43,5.68-1.43.78,1.85.92,4.17.92,6.8v8.57c.34.17.62.36.9.67-.78,1.68-2.35,3.39-3.98,4.23-.45-.2-.95-.48-1.4-.84-.87-.7-1.29-1.62-1.29-3.16v-10l-2.41,8.82c-.87.84-2.02,1.34-3.44,1.43l-2.69-10.64Z"/>
      <path class="cls-2" d="M74.48,22.85c-.2-.62-.25-1.32-.25-1.99v-12.68c-.36-.45-.67-1.04-.84-1.65,1.32-1.4,3.08-2.44,5.26-2.74.7.48,1.37,1.29,1.65,2.16.2.62.25,1.32.25,1.99v12.68c.36.45.67,1.04.84,1.65-1.6,1.4-3.36,2.44-5.26,2.74-.7-.48-1.37-1.29-1.65-2.16Z"/>
      <path class="cls-2" d="M86.71,24.81c-.81-.5-1.46-1.37-1.46-2.91v-11.09c.56-.39,1.2-.67,1.88-.9-1.99-.22-3.95-.39-5.88-.53.84-2.38,2.07-4.34,3.56-5.57,2.3.08,4.93.59,7.45,1.26.56-.53,1.18-.98,1.76-1.29,1.06.53,1.93,1.43,1.93,2.74,0,1.57-.73,3.11-1.88,4.45-.92-.17-1.82-.34-2.74-.48.45,1.62.53,3.56.53,5.68v4.54c.34.17.9.5,1.18.81-.62,1.76-1.88,3.44-3.42,4.23-1.09-.14-2.3-.56-2.91-.95Z"/>
    </g>
  </g>
</svg>